# xmcd
#
# Track frame offsets: 
#        150
#        17324
#        33635
#        50579
#        68478
#        91169
#        109019
#        127735
#        148260
#        164111
#        182268
#        198150
#        213611
#        228626
#        243596
#        267451
#        283594
#        302105
#        318163
#
# Disc length: 4457 seconds
#
# Revision: 0
# Processed by: cddbd v1.5.2PL0 Copyright (c) Steve Scherf et al.
# Submitted via: ExactAudioCopy v0.99pb4
#
DISCID=0e116713
DTITLE=Various Artist - HP201036
DYEAR=2010
DGENRE=Top 40
TTITLE0=Bon Jovi - What Do You Got?
TTITLE1=Pitbull - Bon, Bon
TTITLE2=Cee Lo Green - Forget You
TTITLE3=Keri Hilson - Breaking Point [Radio]
TTITLE4=Eminem feat Lil' Wayne - No Love [Clean]
TTITLE5=Ray J feat Pitbull - 1 Thing Leads To Another
TTITLE6=Cali Swag District feat Michael Jackson - Where You Are
TTITLE7=Rick Ross feat Drake and Chrisette Michele - Aston Martin Music 
TTITLE7=[Edited]
TTITLE8=Marsha Ambrosius - Hope She Cheats On You (With A Basketball P
TTITLE8=layer)
TTITLE9=Carrie Underwood - Mama's Song
TTITLE10=Walker Hayes - Pants
TTITLE11=Jewel - Ten
TTITLE12=My Darkest Days feat Zakk Wylde and Chad Kroeger - Porn Star Da
TTITLE12=ncing
TTITLE13=Broken Bells - The Ghost Inside [Album Version]
TTITLE14=Eric Clapton - Run Back To Your Side
TTITLE15=Stone Temple Pilots - Cinnamon
TTITLE16=Usher feat Pitbull - DJ Got Us Fallin' In Love [Jump Smokers 
TTITLE16=Radio Edit]
TTITLE17=Selena Gomez and The Scene - Round and Round [Dave Aude Radio Edi
TTITLE17=t]
TTITLE18=Paul Baloche - Wonderful God
EXTD=
EXTT0=
EXTT1=
EXTT2=
EXTT3=
EXTT4=
EXTT5=
EXTT6=
EXTT7=
EXTT8=
EXTT9=
EXTT10=
EXTT11=
EXTT12=
EXTT13=
EXTT14=
EXTT15=
EXTT16=
EXTT17=
EXTT18=
PLAYORDER=
